<mxfile host="app.diagrams.net" modified="2023-12-04T05:41:25.466Z" agent="Mozilla/5.0 (Windows NT 10.0; Win64; x64) AppleWebKit/537.36 (KHTML, like Gecko) Chrome/119.0.0.0 Safari/537.36" etag="4sXlsdVc4GbXok5oI_w4" version="21.6.2" type="github">
  <diagram name="Page-1" id="CdFyWuu7mZfADsBGeCwA">
    <mxGraphModel dx="1517" dy="833" grid="1" gridSize="10" guides="1" tooltips="1" connect="1" arrows="1" fold="1" page="1" pageScale="1" pageWidth="850" pageHeight="1100" math="0" shadow="0">
      <root>
        <mxCell id="0" />
        <mxCell id="1" parent="0" />
        <mxCell id="9oPIyIbZ-EvlBXnKMK6W-3" value="" style="image;html=1;image=img/lib/clip_art/networking/Router_Icon_128x128.png" vertex="1" parent="1">
          <mxGeometry x="120" y="190" width="80" height="80" as="geometry" />
        </mxCell>
        <mxCell id="9oPIyIbZ-EvlBXnKMK6W-4" value="" style="image;html=1;image=img/lib/clip_art/networking/Router_Icon_128x128.png" vertex="1" parent="1">
          <mxGeometry x="520" y="190" width="80" height="80" as="geometry" />
        </mxCell>
        <mxCell id="9oPIyIbZ-EvlBXnKMK6W-5" value="" style="image;points=[];aspect=fixed;html=1;align=center;shadow=0;dashed=0;image=img/lib/allied_telesis/computer_and_terminals/Personal_Computer_with_Server.svg;" vertex="1" parent="1">
          <mxGeometry x="128.8" y="420" width="62.400000000000006" height="62.400000000000006" as="geometry" />
        </mxCell>
        <mxCell id="9oPIyIbZ-EvlBXnKMK6W-6" value="" style="image;points=[];aspect=fixed;html=1;align=center;shadow=0;dashed=0;image=img/lib/allied_telesis/computer_and_terminals/Personal_Computer_with_Server.svg;" vertex="1" parent="1">
          <mxGeometry x="528.8" y="420" width="62.400000000000006" height="62.400000000000006" as="geometry" />
        </mxCell>
        <mxCell id="9oPIyIbZ-EvlBXnKMK6W-8" value="" style="shape=flexArrow;endArrow=classic;startArrow=classic;html=1;rounded=0;entryX=0;entryY=0.5;entryDx=0;entryDy=0;exitX=1;exitY=0.5;exitDx=0;exitDy=0;" edge="1" parent="1" source="9oPIyIbZ-EvlBXnKMK6W-3" target="9oPIyIbZ-EvlBXnKMK6W-4">
          <mxGeometry width="100" height="100" relative="1" as="geometry">
            <mxPoint x="210" y="470" as="sourcePoint" />
            <mxPoint x="310" y="370" as="targetPoint" />
          </mxGeometry>
        </mxCell>
        <mxCell id="9oPIyIbZ-EvlBXnKMK6W-9" value="" style="shape=flexArrow;endArrow=classic;startArrow=classic;html=1;rounded=0;entryX=0.5;entryY=1;entryDx=0;entryDy=0;" edge="1" parent="1" source="9oPIyIbZ-EvlBXnKMK6W-6" target="9oPIyIbZ-EvlBXnKMK6W-4">
          <mxGeometry width="100" height="100" relative="1" as="geometry">
            <mxPoint x="210" y="470" as="sourcePoint" />
            <mxPoint x="310" y="370" as="targetPoint" />
          </mxGeometry>
        </mxCell>
        <mxCell id="9oPIyIbZ-EvlBXnKMK6W-10" value="" style="shape=flexArrow;endArrow=classic;startArrow=classic;html=1;rounded=0;entryX=0.5;entryY=1;entryDx=0;entryDy=0;exitX=0.497;exitY=-0.006;exitDx=0;exitDy=0;exitPerimeter=0;" edge="1" parent="1" source="9oPIyIbZ-EvlBXnKMK6W-5" target="9oPIyIbZ-EvlBXnKMK6W-3">
          <mxGeometry width="100" height="100" relative="1" as="geometry">
            <mxPoint x="210" y="470" as="sourcePoint" />
            <mxPoint x="310" y="370" as="targetPoint" />
          </mxGeometry>
        </mxCell>
        <mxCell id="9oPIyIbZ-EvlBXnKMK6W-14" style="edgeStyle=orthogonalEdgeStyle;rounded=0;orthogonalLoop=1;jettySize=auto;html=1;" edge="1" parent="1" source="9oPIyIbZ-EvlBXnKMK6W-11" target="9oPIyIbZ-EvlBXnKMK6W-3">
          <mxGeometry relative="1" as="geometry" />
        </mxCell>
        <mxCell id="9oPIyIbZ-EvlBXnKMK6W-11" value="pfsense A&lt;br&gt;(em0) WAN: 10.0.2.5&lt;br&gt;(em1) LAN: 192.168.10.1" style="text;html=1;strokeColor=none;fillColor=none;align=center;verticalAlign=middle;whiteSpace=wrap;rounded=0;" vertex="1" parent="1">
          <mxGeometry x="80" y="60" width="160" height="100" as="geometry" />
        </mxCell>
        <mxCell id="9oPIyIbZ-EvlBXnKMK6W-13" style="edgeStyle=orthogonalEdgeStyle;rounded=0;orthogonalLoop=1;jettySize=auto;html=1;" edge="1" parent="1" source="9oPIyIbZ-EvlBXnKMK6W-12" target="9oPIyIbZ-EvlBXnKMK6W-4">
          <mxGeometry relative="1" as="geometry" />
        </mxCell>
        <mxCell id="9oPIyIbZ-EvlBXnKMK6W-12" value="pfsense B&lt;br&gt;(em0) WAN: 10.0.2.6&lt;br&gt;(em1) LAN: 192.168.20.1" style="text;html=1;strokeColor=none;fillColor=none;align=center;verticalAlign=middle;whiteSpace=wrap;rounded=0;" vertex="1" parent="1">
          <mxGeometry x="484.40000000000003" y="60" width="151.2" height="100" as="geometry" />
        </mxCell>
        <mxCell id="9oPIyIbZ-EvlBXnKMK6W-18" style="edgeStyle=orthogonalEdgeStyle;rounded=0;orthogonalLoop=1;jettySize=auto;html=1;" edge="1" parent="1" source="9oPIyIbZ-EvlBXnKMK6W-15" target="9oPIyIbZ-EvlBXnKMK6W-5">
          <mxGeometry relative="1" as="geometry" />
        </mxCell>
        <mxCell id="9oPIyIbZ-EvlBXnKMK6W-15" value="Hostname: Windows&lt;br&gt;OS: Windows 10&lt;br&gt;LAN: 192.168.10.5&lt;br&gt;Gateway: 192.168.10.1" style="text;html=1;strokeColor=none;fillColor=none;align=center;verticalAlign=middle;whiteSpace=wrap;rounded=0;" vertex="1" parent="1">
          <mxGeometry x="67.5" y="560" width="185" height="100" as="geometry" />
        </mxCell>
        <mxCell id="9oPIyIbZ-EvlBXnKMK6W-22" style="edgeStyle=orthogonalEdgeStyle;rounded=0;orthogonalLoop=1;jettySize=auto;html=1;" edge="1" parent="1" source="9oPIyIbZ-EvlBXnKMK6W-19" target="9oPIyIbZ-EvlBXnKMK6W-6">
          <mxGeometry relative="1" as="geometry" />
        </mxCell>
        <mxCell id="9oPIyIbZ-EvlBXnKMK6W-19" value="Hostname: Linux&lt;br&gt;OS: Ubuntu&lt;br&gt;(enp0s3) LAN: 192.168.20.5&lt;br&gt;Gateway: 192.168.20.1" style="text;html=1;strokeColor=none;fillColor=none;align=center;verticalAlign=middle;whiteSpace=wrap;rounded=0;" vertex="1" parent="1">
          <mxGeometry x="453.1" y="560" width="213.8" height="100" as="geometry" />
        </mxCell>
      </root>
    </mxGraphModel>
  </diagram>
</mxfile>
